<?xml version="1.0" encoding="UTF-8" standalone="no"?>
<!-- Created with Inkscape (http://www.inkscape.org/) -->

<svg
   width="10.329649mm"
   height="7.6810222mm"
   viewBox="0 0 10.329649 7.6810222"
   version="1.1"
   id="svg1"
   inkscape:version="1.4.4 (dcaf3e7, 2026-05-05)"
   sodipodi:docname="mountain-logo.svg"
   xmlns:inkscape="http://www.inkscape.org/namespaces/inkscape"
   xmlns:sodipodi="http://sodipodi.sourceforge.net/DTD/sodipodi-0.dtd"
   xmlns="http://www.w3.org/2000/svg"
   xmlns:svg="http://www.w3.org/2000/svg">
  <sodipodi:namedview
     id="namedview1"
     pagecolor="#ffffff"
     bordercolor="#000000"
     borderopacity="0.25"
     inkscape:showpageshadow="2"
     inkscape:pageopacity="0.0"
     inkscape:pagecheckerboard="0"
     inkscape:deskcolor="#d1d1d1"
     inkscape:document-units="mm"
     inkscape:zoom="1.0396254"
     inkscape:cx="53.865555"
     inkscape:cy="247.68536"
     inkscape:window-width="933"
     inkscape:window-height="1211"
     inkscape:window-x="2141"
     inkscape:window-y="104"
     inkscape:window-maximized="0"
     inkscape:current-layer="layer1" />
  <defs
     id="defs1">
    <pattern
       id="EMFhbasepattern"
       patternUnits="userSpaceOnUse"
       width="6"
       height="6"
       x="0"
       y="0" />
  </defs>
  <g
     inkscape:label="Layer 1"
     inkscape:groupmode="layer"
     id="layer1"
     transform="translate(-90.810211,-82.918936)">
    <path
       style="fill:#000000"
       d="m 90.810211,90.389131 c 0,-0.183072 2.257925,-3.982242 2.533807,-4.263368 0.05611,-0.05718 0.286563,0.0492 0.512116,0.23639 0.497744,0.413091 0.393373,0.522045 1.58577,-1.655393 0.538471,-0.983303 1.023023,-1.787824 1.076781,-1.787824 0.05376,0 0.489776,0.713716 0.968929,1.586035 0.479153,0.872318 0.990375,1.587565 1.13605,1.589437 0.237271,0.003 2.516196,3.933559 2.516196,4.339736 0,0.0912 -2.324171,0.165814 -5.164824,0.165814 -2.840654,0 -5.164825,-0.09487 -5.164825,-0.210827 z m 2.540474,-1.528313 c 0.503286,-0.858792 0.626627,-1.291549 0.425446,-1.49273 -0.20118,-0.20118 -0.51619,0.08389 -1.086578,0.983296 -0.753654,1.188388 -0.841824,1.718848 -0.285698,1.718848 0.130936,0 0.55701,-0.544236 0.94683,-1.209414 z m 3.356317,0.613473 c 0.325792,-0.182093 0.846794,-0.547538 1.157784,-0.8121 0.55422,-0.47148 0.576908,-0.464912 1.143703,0.331078 0.908229,1.275491 1.150791,0.950125 0.398468,-0.534504 C 98.945255,87.547641 98.6023,87.159083 98.34646,87.257258 98.11597,87.345708 97.827117,87.132823 97.606631,86.71201 97.375,86.269926 97.177649,86.130511 97.057857,86.324339 c -0.322266,0.521437 -0.685527,0.330948 -0.685527,-0.35948 0,-0.364187 0.119188,-0.662157 0.264863,-0.662157 0.145674,0 0.264863,-0.188715 0.264863,-0.419366 0,-0.892356 -0.66135,-0.11587 -2.003559,2.352365 l -1.397368,2.569668 h 1.306763 c 0.71872,0 1.573319,-0.148985 1.89911,-0.331078 z"
       id="path1" />
    <path
       style="fill:#476a4e;fill-opacity:1"
       d="m 90.810211,90.389131 c 0,-0.183072 2.257925,-3.982242 2.533807,-4.263368 0.05611,-0.05718 0.286563,0.0492 0.512116,0.23639 0.497744,0.413091 0.393373,0.522045 1.58577,-1.655393 0.538471,-0.983303 1.023023,-1.787824 1.076781,-1.787824 0.05376,0 0.489776,0.713716 0.968929,1.586035 0.479153,0.872318 0.990375,1.587565 1.13605,1.589437 0.237271,0.003 2.516196,3.933559 2.516196,4.339736 0,0.0912 -2.324171,0.165814 -5.164824,0.165814 -2.840654,0 -5.164825,-0.09487 -5.164825,-0.210827 z m 2.540474,-1.528313 c 0.503286,-0.858792 0.626627,-1.291549 0.425446,-1.49273 -0.20118,-0.20118 -0.51619,0.08389 -1.086578,0.983296 -0.753654,1.188388 -0.841824,1.718848 -0.285698,1.718848 0.130936,0 0.55701,-0.544236 0.94683,-1.209414 z m 3.356317,0.613473 c 0.325792,-0.182093 0.846794,-0.547538 1.157784,-0.8121 0.55422,-0.47148 0.576908,-0.464912 1.143703,0.331078 0.908229,1.275491 1.150791,0.950125 0.398468,-0.534504 C 98.945255,87.547641 98.6023,87.159083 98.34646,87.257258 98.11597,87.345708 97.827117,87.132823 97.606631,86.71201 97.375,86.269926 97.177649,86.130511 97.057857,86.324339 c -0.322266,0.521437 -0.685527,0.330948 -0.685527,-0.35948 0,-0.364187 0.119188,-0.662157 0.264863,-0.662157 0.145674,0 0.264863,-0.188715 0.264863,-0.419366 0,-0.892356 -0.66135,-0.11587 -2.003559,2.352365 l -1.397368,2.569668 h 1.306763 c 0.71872,0 1.573319,-0.148985 1.89911,-0.331078 z"
       id="path2" />
  </g>
</svg>
